<svg width="31" height="16" viewBox="0 0 31 16" fill="none" xmlns="http://www.w3.org/2000/svg">
<g clip-path="url(#clip0_24_749)">
<path d="M21.7267 0.319724C21.5232 0.523184 21.4069 0.799309 21.4069 1.08997C21.4069 1.38062 21.5232 1.67128 21.7267 1.86021L26.7405 6.87406H1.08997C0.479585 6.88859 0 7.36818 0 7.97856C0 8.57441 0.479585 9.06852 1.08997 9.06852H26.726L21.7267 14.0533C21.3052 14.4748 21.3052 15.1723 21.7267 15.5938C22.1481 16.0152 22.8457 16.0152 23.2672 15.5938L30.1993 8.6616C30.3883 8.48721 30.49 8.22562 30.49 7.96402C30.49 7.70243 30.3883 7.45537 30.1993 7.26645L23.2817 0.319724C23.0782 0.116263 22.8021 0 22.4969 0C22.2208 0 21.9301 0.116263 21.7267 0.319724Z" fill="#EACD37"/>
</g>
<defs>
<clipPath id="clip0_24_749">
<rect width="30.49" height="15.899" fill="white"/>
</clipPath>
</defs>
</svg>
