<svg width="56" height="56" viewBox="0 0 56 56" fill="none" xmlns="http://www.w3.org/2000/svg">
<g clip-path="url(#clip0_24_766)">
<path d="M35.814 0H20.186C6.04279 0 0 6.04279 0 20.186V35.814C0 49.9572 6.04279 56 20.186 56H35.814C49.9572 56 56 49.9572 56 35.814V20.186C56 6.04279 49.9572 0 35.814 0ZM52.093 35.814C52.093 47.8214 47.8214 52.093 35.814 52.093H20.186C8.1786 52.093 3.90698 47.8214 3.90698 35.814V20.186C3.90698 8.1786 8.1786 3.90698 20.186 3.90698H35.814C47.8214 3.90698 52.093 8.1786 52.093 20.186V35.814Z" fill="white"/>
<path d="M39.174 23.9629C39.3042 23.2596 39.3823 22.5303 39.3823 21.8271C39.3823 15.5499 34.2772 10.4448 27.974 10.4708C21.6968 10.4708 16.6177 15.5759 16.6177 21.8271C16.6177 22.5564 16.6958 23.2596 16.8261 23.9629C11.2 26.7238 8.85583 33.522 11.6168 39.1741C14.3777 44.8262 21.1758 47.1443 26.8279 44.3834C27.2447 44.175 27.6354 43.9666 28 43.7062C29.8233 44.9043 31.9851 45.5294 34.173 45.5294C40.4502 45.5294 45.5554 40.4503 45.5554 34.1731C45.5554 29.8494 43.0809 25.8903 39.174 23.9629ZM27.1405 38.9136C25.8121 40.4503 23.8586 41.3099 21.827 41.2838C17.894 41.2838 14.7163 38.0801 14.7163 34.1471C14.7163 31.5424 16.1489 29.1462 18.4149 27.8959C20.733 31.3601 24.7182 33.3657 28.8856 33.1573C29.2242 35.2671 28.573 37.3768 27.1405 38.9136ZM26.1247 28.7034C23.9628 28.1043 22.2177 26.5415 21.3842 24.4578C19.9256 20.7852 21.7228 16.6699 25.3954 15.2113C29.0679 13.7527 33.1833 15.5499 34.6419 19.2224C35.3191 20.9155 35.293 22.7648 34.6419 24.4578C33.2875 27.8178 29.6149 29.6671 26.1247 28.7034ZM34.173 41.2838C33.1312 41.2838 32.1154 41.0494 31.1777 40.6327C32.8707 38.1322 33.5479 35.0587 33.027 32.0894C34.9023 31.1517 36.4651 29.7192 37.6112 27.948C41.0493 29.8494 42.2996 34.1731 40.4242 37.6113C39.1479 39.8773 36.7516 41.2838 34.173 41.2838Z" fill="#40C9FF"/>
</g>
<defs>
<clipPath id="clip0_24_766">
<rect width="56" height="56" fill="white"/>
</clipPath>
</defs>
</svg>
