<svg width="51" height="54" viewBox="0 0 51 54" fill="none" xmlns="http://www.w3.org/2000/svg">
<g clip-path="url(#clip0_7_54)">
<path fill-rule="evenodd" clip-rule="evenodd" d="M25.979 0.01839C25.5116 -0.00621138 25.0442 -0.00621138 24.5768 0.01839C22.7809 0.116795 21.108 0.633424 19.2629 1.49447C17.467 2.33092 15.3759 3.53638 12.7189 5.06167L12.5713 5.13547C9.91435 6.68536 7.82323 7.89083 6.19954 9.02249C4.52665 10.2034 3.24738 11.3842 2.26333 12.8849C2.01731 13.2785 1.7713 13.6721 1.54989 14.0904C0.738041 15.7141 0.36902 17.4116 0.17221 19.4535C0 21.4216 0 23.8571 0 26.9077V27.0799C0 30.1305 0 32.566 0.17221 34.5341C0.344419 36.576 0.738041 38.2735 1.54989 39.8726C1.7713 40.2908 1.99271 40.6844 2.26333 41.0781C3.24738 42.6033 4.52665 43.7596 6.19954 44.9405C7.82323 46.0721 9.91435 47.3022 12.5713 48.8275L12.7189 48.9259C15.3759 50.4512 17.467 51.6566 19.2629 52.4931C21.108 53.3541 22.7809 53.8708 24.5768 53.9692C25.0442 53.9938 25.5116 53.9938 25.979 53.9692C27.7749 53.8708 29.4478 53.3541 31.2929 52.4931C33.0888 51.6566 35.18 50.4512 37.8369 48.9259L37.9845 48.8275C40.6415 47.3022 42.7326 46.0967 44.3563 44.9405C46.0292 43.7596 47.3084 42.5787 48.2925 41.0781C48.5385 40.6844 48.7845 40.2908 49.0059 39.8726C49.8424 38.2735 50.2114 36.576 50.3836 34.5341C50.5558 32.566 50.5558 30.1305 50.5558 27.0799V26.9077C50.5558 23.8571 50.5558 21.4216 50.3836 19.4535C50.2114 17.4116 49.8178 15.7141 49.0059 14.115C48.7845 13.6967 48.5631 13.3031 48.2925 12.9095C47.3084 11.3842 46.0292 10.2034 44.3563 9.04709C42.7326 7.91543 40.6415 6.68536 37.9845 5.16007L37.8369 5.06167C35.18 3.53638 33.0888 2.33092 31.2929 1.49447C29.4478 0.633424 27.7749 0.0921941 25.979 0.01839ZM24.7736 3.70859C25.118 3.68399 25.4624 3.68399 25.8068 3.70859C26.9631 3.7578 28.144 4.10222 29.743 4.84026C31.3667 5.6029 33.3348 6.73456 36.0656 8.30905C38.7964 9.88354 40.7645 11.0152 42.2405 12.0485C43.692 13.0571 44.5531 13.9182 45.1927 14.9022C45.3895 15.1974 45.5617 15.4926 45.7093 15.8125C46.2506 16.8457 46.5458 18.0266 46.6934 19.7979C46.8656 21.5938 46.8656 23.8571 46.8656 27.0061C46.8656 30.1551 46.8656 32.4184 46.6934 34.2143C46.5458 35.9856 46.226 37.1664 45.7093 38.1997C45.5617 38.4949 45.3895 38.8147 45.1927 39.0854C44.5531 40.0694 43.692 40.9305 42.2405 41.9391C40.7645 42.9724 38.821 44.104 36.0656 45.6785C33.3348 47.253 31.3667 48.3847 29.743 49.1473C28.144 49.8853 26.9631 50.2298 25.8068 50.279C25.4624 50.3036 25.118 50.3036 24.7736 50.279C23.6173 50.2298 22.4364 49.8853 20.8374 49.1473C19.1891 48.4093 17.221 47.2776 14.4902 45.7031C11.7595 44.1286 9.79134 42.997 8.31526 41.9637C6.86378 40.9551 6.00273 40.094 5.3631 39.11C5.16629 38.8147 4.99408 38.5195 4.84647 38.2243C4.30524 37.191 4.01002 36.0102 3.86241 34.2389C3.6902 32.4184 3.6902 30.1551 3.6902 27.0061C3.6902 23.8571 3.6902 21.5938 3.86241 19.7979C4.01002 18.0266 4.32984 16.8457 4.84647 15.8125C4.99408 15.4926 5.16629 15.1974 5.3631 14.9022C6.00273 13.9182 6.86378 13.0571 8.31526 12.0485C9.79134 11.0152 11.7348 9.88354 14.4902 8.30905C17.221 6.70996 19.1891 5.6029 20.8128 4.84026C22.4118 4.07761 23.5927 3.7578 24.7736 3.70859Z" fill="#EACD37"/>
<g clip-path="url(#clip1_7_54)">
<path d="M12.9336 32.1808L9 34.4665L12.8007 18.3867C13.6246 15.9416 15.0067 14.4 17.8505 14.4C21.0399 14.4 22.6346 16.2871 22.6346 19.0778L23.1927 29.5496C23.1927 30.2937 23.6445 30.7721 24.2824 30.7721C24.8671 30.7721 25.2924 30.4266 25.505 29.8685L30.1562 18.3867C31.0067 15.9416 32.3622 14.4 35.2326 14.4C38.422 14.4 40.0167 16.2871 40.0167 19.0778V44.4004L36.216 47.016V19.2904C36.216 18.5196 35.7642 18.0412 35.1263 18.0412C34.5947 18.0412 34.1429 18.4133 33.9569 18.9715L29.2791 30.4532C28.4552 32.8984 27.0465 34.4399 24.1761 34.4399C21.0133 34.4399 19.4186 32.5529 19.4186 29.709L18.8871 19.2904C18.8871 18.5196 18.4087 18.0412 17.7708 18.0412C17.1861 18.0412 16.814 18.4133 16.6013 18.9715L12.9336 32.1808Z" fill="#EACD37"/>
</g>
</g>
<defs>
<clipPath id="clip0_7_54">
<rect width="50.5558" height="54" fill="white"/>
</clipPath>
<clipPath id="clip1_7_54">
<rect width="31.5" height="33.3" fill="white" transform="translate(9 14.4)"/>
</clipPath>
</defs>
</svg>
