<svg width="60" height="60" viewBox="0 0 60 60" fill="none" xmlns="http://www.w3.org/2000/svg">
<g clip-path="url(#clip0_24_742)">
<path d="M16.2429 28.115C15.8143 26.4436 15.0429 24.815 13.8 23.5293C15.8571 21.6007 17.1429 18.5579 17.1429 15.0007C17.1429 12.0007 16.5429 9.94359 15.4286 8.31501C14.9143 7.54359 14.3143 6.90073 13.7571 6.38644C13.5 6.08644 13.2429 5.87216 13.0286 5.70073C12.7714 5.44359 12.5571 5.2293 12.2143 4.9293C11.5714 4.28644 11.5286 3.77216 11.5286 3.47216C11.5286 3.30073 11.5714 3.17216 11.5714 3.08644C11.5714 3.04359 11.5714 3.04359 11.5714 3.04359C11.9571 2.18644 11.7429 1.15787 11.0571 0.557873C10.3286 -0.0849842 9.25714 -0.170698 8.44286 0.343587L8.4 0.386444L8.27143 0.472159C8.14286 0.557873 8.01429 0.686444 7.84286 0.815016C7.45714 1.07216 6.98571 1.45787 6.42857 1.97216C5.35714 2.91502 3.94286 4.28644 2.95714 5.95787C2.14286 7.24359 1.41429 8.87216 0.9 10.415C0.385714 11.915 0 13.5864 0 15.0007C0 18.5579 1.28571 21.6007 3.3 23.5293C2.05714 24.815 1.32857 26.4436 0.857143 28.115C0 31.3722 0 35.315 0 38.4007V38.5722C0 47.4007 1.67143 52.6293 3.51429 55.7579C4.45714 57.3007 5.44286 58.3293 6.25714 58.9722C6.64286 59.2722 7.02857 59.4864 7.28571 59.6579C7.41429 59.7436 7.54286 59.7864 7.67143 59.8293C7.67143 59.8293 8.22857 60.0436 8.57143 60.0436C8.91429 60.0436 9.47143 59.8293 9.47143 59.8293C9.55714 59.7864 9.68571 59.7436 9.85714 59.6579C10.1571 59.5293 10.5 59.2722 10.8857 58.9722C11.7 58.3293 12.6857 57.3436 13.6286 55.7579C15.4714 52.6293 17.1429 47.4007 17.1429 38.5722V38.4007C17.1429 35.315 17.1429 31.3722 16.2429 28.115ZM6.38571 26.5293C6.85714 26.0579 7.5 25.715 8.57143 25.715C9.64286 25.715 10.2857 26.0579 10.7571 26.5293C11.3143 27.0864 11.7857 27.9436 12.1286 29.2293C12.8571 31.8864 12.8571 35.315 12.8571 38.5722C12.8571 46.8864 11.3143 51.3007 9.94286 53.5293C9.42857 54.3864 8.95714 54.9436 8.57143 55.2864C8.18571 54.9436 7.71428 54.3864 7.2 53.5293C5.82857 51.3007 4.28571 46.8864 4.28571 38.5722C4.28571 35.315 4.28571 31.8864 5.01429 29.2293C5.35714 27.9436 5.82857 27.0864 6.38571 26.5293ZM8.57143 21.4293C6.94286 21.4293 4.28571 19.5864 4.28571 15.0007C4.28571 14.2722 4.5 13.0722 4.97143 11.7436C5.4 10.4579 6 9.17216 6.6 8.27216C6.6 8.2293 6.64286 8.2293 6.64286 8.18644C7.02857 7.54359 7.5 6.94359 8.01429 6.38644C8.31429 6.90073 8.7 7.45787 9.21429 7.97216C9.51429 8.27216 9.9 8.65787 10.2857 8.95787C10.5 9.17216 10.6714 9.34359 10.8 9.47216C11.2714 9.90073 11.6143 10.2864 11.8714 10.715C12.3857 11.4864 12.8571 12.6436 12.8571 15.0007C12.8571 19.5864 10.2 21.4293 8.57143 21.4293Z" fill="#40C9FF"/>
<path d="M25.7143 42.7292C24.2143 42.5578 22.7571 42.2149 21.3429 41.7435C21.3857 40.7149 21.4286 39.6864 21.4286 38.5721V38.2292C21.4286 37.8864 21.4286 37.5007 21.4286 37.1149C22.7571 37.7578 24.2143 38.1864 25.7143 38.4007V27.8578C25.7143 24.3007 28.5857 21.4292 32.1429 21.4292H42.6857C41.6571 14.1435 35.4 8.57209 27.8571 8.57209C25.3286 8.57209 22.9714 9.17209 20.9143 10.2864C20.5286 8.82923 20.0143 7.54352 19.2429 6.30066C21.8571 5.01495 24.7714 4.28638 27.8571 4.28638C37.8 4.28638 45.9429 11.7864 47.0143 21.4292H53.5714C57.1286 21.4292 60 24.3007 60 27.8578V49.2864C60 52.8435 57.1286 55.7149 53.5714 55.7149H32.1429C28.5857 55.7149 25.7143 52.8435 25.7143 49.2864V42.7292ZM47.0143 25.7149C46.0286 34.6721 38.9571 41.7435 30 42.7292V49.2864C30 50.4864 30.9429 51.4292 32.1429 51.4292H53.5714C54.7714 51.4292 55.7143 50.4864 55.7143 49.2864V27.8578C55.7143 26.6578 54.7714 25.7149 53.5714 25.7149H47.0143ZM42.6857 25.7149H32.1429C30.9429 25.7149 30 26.6578 30 27.8578V38.4007C36.5571 37.5007 41.7857 32.2721 42.6857 25.7149Z" fill="white"/>
</g>
<defs>
<clipPath id="clip0_24_742">
<rect width="60" height="60" fill="white"/>
</clipPath>
</defs>
</svg>
