<svg width="56" height="56" viewBox="0 0 56 56" fill="none" xmlns="http://www.w3.org/2000/svg">
<path d="M22.4521 36.3348L17.6335 41.1534C16.8781 41.9087 15.6279 41.9087 14.8726 41.1534C14.1172 40.398 14.1172 39.1478 14.8726 38.3924L19.6912 33.5738C20.4465 32.8185 21.6967 32.8185 22.4521 33.5738C23.2074 34.3292 23.2335 35.5794 22.4521 36.3348Z" fill="#40C9FF"/>
<path d="M36.934 14.2995C35.6837 12.9972 33.9126 12.2939 32.1153 12.4502C30.5526 12.6325 29.1721 13.5181 28.3646 14.8465L26.307 18.1023L21.2019 17.8158C16.7219 17.5553 14.586 19.3005 14.0651 23.7023L12.5023 36.9079C12.2419 38.7312 12.8409 40.5805 14.1172 41.9088C15.2372 43.0028 16.7479 43.6018 18.3107 43.5758C18.5712 43.5758 18.8577 43.5498 19.1181 43.5237L32.3237 41.9609C36.8298 41.44 38.653 39.2 38.2102 34.8242L37.8977 29.7451L41.1535 27.6874C42.4558 26.8539 43.3153 25.4735 43.4716 23.9367C43.6539 22.1395 43.0028 20.3684 41.7005 19.1181L36.934 14.2995ZM31.8809 38.106L18.6753 39.6688C17.6595 39.9032 16.6437 39.2781 16.3833 38.2623C16.3051 37.9758 16.3051 37.6632 16.3833 37.3767L17.946 24.1712C18.2065 21.9572 18.4409 21.5665 20.9674 21.7228L26.4633 22.0614L33.9907 29.5888L34.3293 35.1628C34.5637 37.4549 34.2512 37.8195 31.8809 38.106ZM39.0958 24.3795L36.1786 26.2288L29.7972 19.8474L31.6465 16.9302C31.8288 16.5916 32.1674 16.3832 32.5321 16.3312C33.1572 16.3051 33.7563 16.5916 34.147 17.0605L38.9656 21.8791C39.4084 22.2958 39.6428 22.8949 39.6167 23.52C39.5907 23.8586 39.4084 24.1972 39.0958 24.3795Z" fill="#40C9FF"/>
<path d="M35.814 0H20.186C6.04279 0 0 6.04279 0 20.186V35.814C0 49.9572 6.04279 56 20.186 56H35.814C49.9572 56 56 49.9572 56 35.814V20.186C56 6.04279 49.9572 0 35.814 0ZM52.093 35.814C52.093 47.8214 47.8214 52.093 35.814 52.093H20.186C8.1786 52.093 3.90698 47.8214 3.90698 35.814V20.186C3.90698 8.1786 8.1786 3.90698 20.186 3.90698H35.814C47.8214 3.90698 52.093 8.1786 52.093 20.186V35.814Z" fill="white"/>
</svg>
